<?xml version="1.0" encoding="UTF-8"?>
<svg width="1687px" height="538px" viewBox="0 0 1687 538" version="1.1" xmlns="http://www.w3.org/2000/svg" xmlns:xlink="http://www.w3.org/1999/xlink">
    <!-- Generator: Sketch 55.2 (78181) - https://sketchapp.com -->
    <title>logo green</title>
    <desc>Created with Sketch.</desc>
    <g id="logo-green" stroke="none" stroke-width="1" fill="none" fill-rule="evenodd">
        <path d="M253,494 C124.869938,494 21,390.130062 21,262 C21,133.869938 124.869938,30 253,30 C381.130062,30 485,133.869938 485,262 C485,390.130062 381.130062,494 253,494 Z M213.8,368.2 C254.12,368.2 285.2,343 285.2,296.24 L285.2,165.48 L257.76,165.48 L257.76,295.4 C257.76,325.64 241.8,342.72 213.8,342.72 C186.08,342.72 169.56,325.64 169.56,295.4 L169.56,165.48 L142.4,165.48 L142.4,296.24 C142.4,343 173.48,368.2 213.8,368.2 Z M360.8,364 L360.8,165.48 L332.8,165.48 L332.8,364 L360.8,364 Z" id="Combined-Shape" fill="#3FC1BF"></path>
        <path d="M633.16,368.2 C581.92,368.2 534.6,330.96 534.6,264.6 C534.6,198.24 583.88,161.28 633.16,161.28 C678.52,161.28 710.44,185.92 720.52,224.28 L695.04,233.24 C687.48,203.28 665.64,186.48 633.16,186.48 C597.04,186.48 562.6,212.8 562.6,264.6 C562.6,316.4 597.04,343 633.16,343 C667.04,343 688.32,322.56 696.44,295.4 L720.8,304.36 C710.16,341.6 678.8,368.2 633.16,368.2 Z M894.68,364 L873.12,308.56 L785.2,308.56 L764.2,364 L734.8,364 L813.76,165.48 L845.4,165.48 L924.36,364 L894.68,364 Z M828.88,194.04 L795,283.08 L863.32,283.08 L828.88,194.04 Z M1078.92,210.56 L1054.28,219.24 C1052.04,204.96 1040,185.36 1012.28,185.36 C989.88,185.36 973.92,199.92 973.92,218.4 C973.92,232.68 982.6,243.6 999.4,247.24 L1029.08,253.68 C1062.12,260.96 1080.6,281.68 1080.6,309.4 C1080.6,340.2 1054.28,368.2 1012,368.2 C964.12,368.2 941.44,337.4 937.8,309.12 L964.12,300.72 C966.08,322.84 981.76,343.28 1011.72,343.28 C1039.16,343.28 1052.6,329 1052.6,311.64 C1052.6,297.36 1042.8,285.04 1022.92,280.84 L994.64,274.68 C966.36,268.52 946.2,250.04 946.2,220.36 C946.2,189.28 975.04,161.28 1011.72,161.28 C1056.52,161.28 1074.44,189 1078.92,210.56 Z M1256.16,190.96 L1189.8,190.96 L1189.8,364 L1162.36,364 L1162.36,190.96 L1096,190.96 L1096,165.48 L1256.16,165.48 L1256.16,190.96 Z M1404.84,364 L1284.16,364 L1284.16,165.48 L1404.84,165.48 L1404.84,190.96 L1311.6,190.96 L1311.6,252 L1396.16,252 L1396.16,277.76 L1311.6,277.76 L1311.6,338.52 L1404.84,338.52 L1404.84,364 Z M1549.6,364 L1504.24,282.8 L1474.56,282.8 L1474.56,364 L1446.84,364 L1446.84,165.48 L1521.6,165.48 C1559.12,165.48 1582.36,191.8 1582.36,224.56 C1582.36,253.12 1564.16,275.24 1534.2,280.84 L1581.52,364 L1549.6,364 Z M1474.56,258.16 L1516.56,258.16 C1538.96,258.16 1554.08,245 1554.08,224.56 C1554.08,203.56 1538.96,190.12 1516.56,190.12 L1474.56,190.12 L1474.56,258.16 Z" id="CASTER" fill="#2F4A4A" fill-rule="nonzero"></path>
    </g>
</svg>